<?xml version="1.0" encoding="UTF-8"?>
<svg id="_ÎÓÈ_1" data-name="—ÎÓÈ_1" xmlns="http://www.w3.org/2000/svg" viewBox="0 0 1320.84 1325.28">
  <defs>
    <style>
      .cls-1 {
        fill: #e65100;
      }

      .cls-2 {
        fill: #fff;
      }

      .cls-3 {
        fill: #80deea;
      }
    </style>
  </defs>
  <path d="M1102.49,858.24c-10.57,0-20.18-7.19-22.81-17.91L892.51,76.46c-3.02-12.31,4.28-24.8,16.48-28.22l114.92-32.22c12.5-3.5,25.47,3.79,28.97,16.28,3.5,12.5-3.79,25.47-16.28,28.97l-93.03,26.09,181.76,741.79c3.09,12.61-4.63,25.33-17.23,28.42-1.88.46-3.76.68-5.61.68Z"/>
  <circle cx="1030.26" cy="38.64" r="38.64" transform="translate(600.3 975.69) rotate(-67.5)"/>
  <circle class="cls-2" cx="1030.26" cy="38.64" r="16.72" transform="translate(18.68 237.74) rotate(-13.28)"/>
  <path d="M1218.41,1066.96l16.82,68.63c17.73,13.57,29.17,34.95,29.17,59,0,41.01-33.25,74.25-74.25,74.25s-74.25-33.24-74.25-74.25c0-11.29,2.52-21.99,7.03-31.57l-16.71-68.6c-28.59,23.96-46.76,59.94-46.76,100.17,0,72.18,58.51,130.69,130.69,130.69s130.69-58.51,130.69-130.69c0-62.48-43.83-114.71-102.43-127.63Z"/>
  <path d="M177.56,1252.17c-12.78,10.42-29.1,16.67-46.87,16.67-41.01,0-74.25-33.24-74.25-74.25s33.24-74.25,74.25-74.25c17.49,0,33.56,6.05,46.25,16.17h70.84c-21.38-43.04-65.78-72.61-117.09-72.61-72.18,0-130.69,58.51-130.69,130.69s58.51,130.69,130.69,130.69c51.51,0,96.06-29.8,117.34-73.11h-70.47Z"/>
  <path d="M1302.24,1082.5c-5.21,5.21-13.48,5.48-19.15.77-25.07-20.85-57.29-33.39-92.44-33.39-75.54,0-137.57,57.89-144.13,131.73-.65,7.33-6.73,12.97-14.09,12.97h0c-8.22,0-14.83-6.99-14.12-15.18,7.69-88.43,81.91-157.81,172.33-157.81,42.06,0,80.6,15.01,110.58,39.96,6.42,5.34,6.92,15.03,1.01,20.94h0Z"/>
  <path class="cls-3" d="M20.15,1061.51c29.97-24.92,68.5-39.91,110.53-39.91,60.67,0,114.02,31.25,144.89,78.52,19.75,30.25,53.52,48.4,89.65,48.4h454.67c8.32,0,16.31-3.31,22.19-9.19l219.37-219.37c7.3-7.3,10.27-17.88,7.82-27.91l-17.3-69.11c-2.18-8.69,3.14-17.5,11.85-19.62l57.58-14.03c8.66-2.11,17.39,3.19,19.52,11.85l93.77,382.67c6.12,25.13-9.76,50.47-35.31,55.74-24.34,5.02-48.12-10.97-54-35.12l-41.19-169.12c-2.44-10.03-14.93-13.53-22.23-6.23l-185.75,185.75c-16.22,16.22-38.22,25.33-61.16,25.33H128.09c-25.31,0-45.83-20.52-45.83-45.83h0c0-25.31,20.52-45.83,45.83-45.83h139.76c-19.25-57.31-73.36-98.62-137.16-98.62-35.27,0-67.59,12.62-92.7,33.59-6.21,5.18-15.57,4.36-20.58-2.4-4.5-6.07-3.06-14.74,2.75-19.57Z"/>
  <g>
    <rect class="cls-1" x="174.21" y="1124.86" width="21.26" height="139.46" rx="10.63" ry="10.63" transform="translate(1379.4257 1009.7517) rotate(90)"/>
    <path class="cls-1" d="M1191.62,1202.67h0c-5.7,1.39-11.46-2.1-12.85-7.81l-28.02-114.84c-1.39-5.7,2.1-11.46,7.81-12.85h0c5.7-1.39,11.46,2.1,12.85,7.81l28.02,114.84c1.39,5.7-2.1,11.46-7.81,12.85Z"/>
    <path class="cls-1" d="M1109.21,864.89h0c-5.7,1.39-11.46-2.1-12.85-7.81l-6.04-24.77c-1.39-5.7,2.1-11.46,7.81-12.85h0c5.7-1.39,11.45,2.1,12.85,7.81l6.04,24.77c1.39,5.7-2.1,11.45-7.81,12.85Z"/>
    <circle class="cls-1" cx="279.76" cy="1194.59" r="10.63" transform="translate(-435.85 197.99) rotate(-22.5)"/>
    <circle class="cls-1" cx="311.86" cy="1194.59" r="10.63" transform="translate(-433.41 210.28) rotate(-22.5)"/>
    <circle class="cls-1" cx="343.95" cy="1194.59" r="10.63" transform="translate(-897.7039 1254.8789) rotate(-76.7174)"/>
  </g>
</svg>